<?xml version="1.0" standalone="no"?>
<!DOCTYPE svg PUBLIC "-//W3C//DTD SVG 20010904//EN"
 "http://www.w3.org/TR/2001/REC-SVG-20010904/DTD/svg10.dtd">
<svg version="1.0" xmlns="http://www.w3.org/2000/svg"
 width="512.000000pt" height="512.000000pt" viewBox="0 0 512.000000 512.000000"
 preserveAspectRatio="xMidYMid meet">
<metadata>
Created by potrace 1.11, written by Peter Selinger 2001-2013
</metadata>
<g transform="translate(0.000000,512.000000) scale(0.100000,-0.100000)"
fill="#000000" stroke="none">
<path d="M1467 3615 c-21 -7 -48 -21 -60 -32 -11 -10 -224 -222 -473 -470
-470 -469 -474 -474 -474 -553 0 -80 2 -83 495 -575 451 -451 475 -473 520
-483 26 -6 63 -8 83 -6 42 5 112 54 136 95 26 45 30 126 9 172 -11 24 -160
181 -397 418 l-379 379 379 380 c233 233 386 394 397 417 25 54 17 133 -19
185 -48 68 -141 100 -217 73z"/>
<path d="M2866 3619 c-75 -21 -93 -44 -196 -254 -112 -230 -170 -351 -233
-485 -24 -52 -74 -156 -110 -230 -67 -139 -152 -318 -214 -450 -20 -41 -76
-158 -125 -260 -119 -247 -125 -306 -36 -391 101 -96 253 -60 317 74 11 23 42
89 69 147 27 58 71 150 98 205 26 55 49 102 49 105 1 3 24 52 52 110 28 58 75
157 105 220 31 63 82 171 115 240 34 69 82 170 108 225 26 55 73 154 105 220
149 313 151 318 131 391 -12 45 -69 110 -109 125 -37 14 -92 18 -126 8z"/>
<path d="M3532 3617 c-48 -15 -109 -78 -123 -129 -13 -49 -6 -120 16 -151 8
-12 184 -192 391 -399 l377 -377 -385 -386 c-342 -342 -387 -391 -398 -430
-36 -128 56 -250 185 -248 28 0 66 8 84 17 17 9 237 222 487 472 323 323 461
468 475 497 40 89 20 155 -76 252 -38 38 -63 70 -59 77 4 7 3 8 -4 4 -6 -4
-174 157 -401 383 -214 214 -404 397 -421 406 -39 20 -103 25 -148 12z"/>
</g>
</svg>
